<svg width="40" height="40" viewBox="0 0 40 40" fill="none" xmlns="http://www.w3.org/2000/svg">
<path d="M31.7969 0H8.20312C3.67992 0 0 3.67992 0 8.20312V31.7969C0 36.3201 3.67992 40 8.20312 40H31.7969C36.3201 40 40 36.3201 40 31.7969V8.20312C40 3.67992 36.3201 0 31.7969 0ZM37.6562 31.7969C37.6562 35.0277 35.0277 37.6562 31.7969 37.6562H8.20312C4.97227 37.6562 2.34375 35.0277 2.34375 31.7969V8.20312C2.34375 4.97227 4.97227 2.34375 8.20312 2.34375H31.7969C35.0277 2.34375 37.6562 4.97227 37.6562 8.20312V31.7969Z" fill="white"/>
<path d="M23.8786 9.65084C23.7435 9.14694 23.4204 8.72569 22.9686 8.46491C22.0361 7.92647 20.8392 8.24701 20.3006 9.17983L20 9.70045L19.6994 9.17975C19.1609 8.24717 17.9641 7.92647 17.0314 8.46483H17.0313C16.0987 9.00334 15.778 10.2001 16.3165 11.1329L17.7447 13.6066L12.4748 22.7344H8.63281C7.55586 22.7344 6.67969 23.6105 6.67969 24.6875C6.67969 25.7644 7.55586 26.6406 8.63281 26.6406H23.4656L21.2103 22.7344H16.9854L23.6834 11.133C23.9443 10.6812 24.0137 10.1547 23.8786 9.65084Z" fill="white"/>
<path d="M31.3672 22.7343H27.5252L23.1575 15.1692L20.9022 19.0754L27.6838 30.8214C27.9446 31.2732 28.3657 31.5964 28.8698 31.7315C29.0381 31.7766 29.2088 31.7989 29.3785 31.7989C29.7169 31.7989 30.051 31.7102 30.352 31.5364C31.2846 30.9978 31.6053 29.801 31.0668 28.8684L29.7804 26.6406H31.3672C32.4442 26.6406 33.3203 25.7644 33.3203 24.6875C33.3203 23.6105 32.4442 22.7343 31.3672 22.7343Z" fill="white"/>
<path d="M9.3174 28.2031L8.93325 28.8684C8.39482 29.8011 8.71552 30.998 9.64818 31.5364C9.95497 31.7135 10.2903 31.7977 10.6215 31.7977C11.2969 31.7977 11.9548 31.4473 12.3162 30.8215L13.8279 28.2031H9.3174Z" fill="white"/>
</svg>
