<svg width="20" height="20" viewBox="0 0 20 20" fill="none" xmlns="http://www.w3.org/2000/svg">
<g clip-path="url(#clip0)">
<path d="M19.2522 8.82553L9.99515 18.0834L0.738145 8.82553C0.565449 8.6587 0.290203 8.66351 0.123376 8.83621C-0.0393348 9.0047 -0.0393348 9.2718 0.123376 9.44025L9.68819 19.0051C9.85795 19.1748 10.1332 19.1748 10.303 19.0051L19.8678 9.44025C20.0346 9.26756 20.0298 8.99231 19.8571 8.82549C19.6886 8.66273 19.4215 8.66273 19.253 8.82549L19.2522 8.82553Z" fill="#607D8B"/>
<path d="M19.2521 0.999777L9.99515 10.2576L0.738145 0.999777C0.565449 0.83295 0.290202 0.837759 0.123376 1.01046C-0.0393348 1.17895 -0.0393348 1.44605 0.123376 1.61455L9.68819 11.1794C9.85795 11.3491 10.1332 11.3491 10.303 11.1794L19.8678 1.61455C20.0405 1.44772 20.0452 1.17251 19.8785 0.999777C19.7116 0.82708 19.4364 0.822312 19.2637 0.989098C19.2601 0.992603 19.2565 0.996149 19.253 0.999777H19.2521Z" fill="#607D8B"/>
<path d="M9.99431 19.1329C9.87892 19.1331 9.76818 19.0875 9.6865 19.006L0.121682 9.44115C-0.0451452 9.26845 -0.0403356 8.99321 0.132361 8.82638C0.300859 8.66367 0.567953 8.66367 0.736411 8.82638L9.99427 18.0834L19.2513 8.82552C19.424 8.6587 19.6992 8.66351 19.866 8.8362C20.0288 9.0047 20.0288 9.2718 19.866 9.44029L10.3013 19.0051C10.2199 19.0867 10.1095 19.1326 9.99431 19.1329Z" fill="white"/>
<path d="M9.99431 11.3072C9.87892 11.3074 9.76818 11.2617 9.6865 11.1802L0.121682 1.6154C-0.0451452 1.44271 -0.0403356 1.16746 0.132361 1.00063C0.300859 0.837922 0.567953 0.837922 0.736451 1.00063L9.99431 10.2576L19.2513 0.999777C19.4181 0.82708 19.6933 0.822312 19.8661 0.989098C20.0388 1.15588 20.0435 1.43113 19.8768 1.60387C19.8733 1.60749 19.8697 1.61104 19.8661 1.61455L10.3013 11.1794C10.2199 11.2609 10.1095 11.3069 9.99431 11.3072Z" fill="white"/>
</g>
<defs>
<clipPath id="clip0">
<rect width="20" height="20" fill="white"/>
</clipPath>
</defs>
</svg>
