<svg width="40" height="40" viewBox="0 0 40 40" fill="none" xmlns="http://www.w3.org/2000/svg">
<g clip-path="url(#clip0)">
<path d="M36.2347 15.8288L8.73406 0.647594C7.12446 -0.239686 5.21743 -0.214692 3.63533 0.722576C2.1432 1.60486 1.25342 3.13698 1.25342 4.82156V35.179C1.25342 36.8661 2.1457 38.3982 3.63783 39.2805C4.45012 39.7604 5.3474 40.0003 6.24718 40.0003C7.09947 40.0003 7.95176 39.7854 8.73656 39.3505L36.2372 24.1743C37.8093 23.3045 38.7491 21.7449 38.7466 19.9978C38.7466 18.2532 37.8069 16.6961 36.2347 15.8288ZM35.025 21.9873L7.52686 37.1635C6.69957 37.6184 5.71981 37.6059 4.90751 37.126C4.17269 36.6936 3.7528 35.9838 3.7528 35.179V4.82156C3.7528 4.01676 4.17269 3.30693 4.90251 2.87454C5.32241 2.6271 5.78479 2.50463 6.24718 2.50463C6.68457 2.50463 7.12196 2.61461 7.52436 2.83455L35.0275 18.0183C35.7873 18.4382 36.2447 19.1805 36.2447 20.0003C36.2447 20.8201 35.7898 21.5649 35.025 21.9873Z" fill="white"/>
<path d="M30.606 25.4061L4.51251 1.33462C4.00513 0.869733 3.21533 0.899725 2.74544 1.4071C2.27806 1.91447 2.30805 2.70428 2.81543 3.17166L28.909 27.2407C29.1489 27.4631 29.4538 27.5731 29.7562 27.5731C30.0937 27.5731 30.4286 27.4406 30.676 27.1707C31.1459 26.6633 31.1134 25.8735 30.606 25.4061Z" fill="white"/>
<path d="M29.2139 12.0219C28.7265 11.5345 27.9342 11.5345 27.4468 12.0219L2.70294 36.7633C2.21556 37.2506 2.21556 38.0429 2.70294 38.5303C2.94788 38.7728 3.2678 38.8952 3.58772 38.8952C3.90764 38.8952 4.22756 38.7728 4.47 38.5303L29.2139 13.789C29.7012 13.3016 29.7012 12.5093 29.2139 12.0219Z" fill="white"/>
</g>
<defs>
<clipPath id="clip0">
<rect width="40" height="40" fill="white"/>
</clipPath>
</defs>
</svg>
