<svg width="53" height="69" viewBox="0 0 53 69" fill="none" xmlns="http://www.w3.org/2000/svg">
<g clip-path="url(#clip0)">
<path d="M47.3816 8.68399H5.61838C3.03259 8.68399 0.936401 10.797 0.936401 13.4036V55.502C0.936401 58.1086 3.03259 60.2216 5.61838 60.2216H47.3816C49.9674 60.2216 52.0636 58.1086 52.0636 55.502V13.4036C52.0636 10.797 49.9674 8.68399 47.3816 8.68399Z" stroke="white" stroke-width="2"/>
<path d="M21.6869 15.197H4.66327V54.8413H13.765V43.9108H21.6869C32.1933 43.9108 38.7668 38.4172 38.7668 29.5822C38.7668 20.6906 32.1933 15.197 21.6869 15.197ZM21.1813 36.435H13.765V22.6728H21.1813C26.7435 22.6728 29.5527 25.2213 29.5527 29.5822C29.5527 33.8865 26.7435 36.435 21.1813 36.435Z" fill="white"/>
<path d="M26.0468 47.8677C26.0468 47.2674 26.3277 46.9842 26.8446 46.9842C27.1143 46.9842 27.3615 47.0635 27.5525 47.1994L28.0133 45.9195C27.6874 45.6929 27.1705 45.591 26.6761 45.591C25.1704 45.591 24.3388 46.4858 24.3388 47.8564V48.1282H23.4062V49.4874H24.3388V54.0862H26.0918V49.4874H27.5975V48.1282H26.0468V47.8677ZM31.0449 48.7965V47.9923H29.3707V54.0862H31.1236V51.2091C31.1236 50.0425 31.7641 49.5101 32.7304 49.5101C32.8653 49.5101 32.9777 49.5214 33.1237 49.5328V47.9017C32.1911 47.9017 31.4719 48.2075 31.0449 48.7965ZM40.0329 51.0619C40.0329 49.1023 38.662 47.9017 36.8866 47.9017C35.0438 47.9017 33.6617 49.2156 33.6617 51.0392C33.6617 52.8515 35.0213 54.1768 37.1114 54.1768C38.2013 54.1768 39.0441 53.837 39.6059 53.1914L38.6733 52.1719C38.2575 52.5684 37.7968 52.7609 37.1563 52.7609C36.2349 52.7609 35.5944 52.2965 35.4259 51.5376H39.9992C40.0105 51.3904 40.0329 51.1978 40.0329 51.0619ZM36.8979 49.2383C37.6844 49.2383 38.2575 49.7366 38.3811 50.5069H35.4034C35.527 49.7253 36.1001 49.2383 36.8979 49.2383ZM47.1217 51.0619C47.1217 49.1023 45.7508 47.9017 43.9754 47.9017C42.1326 47.9017 40.7505 49.2156 40.7505 51.0392C40.7505 52.8515 42.1101 54.1768 44.2002 54.1768C45.2901 54.1768 46.1329 53.837 46.6947 53.1914L45.7621 52.1719C45.3463 52.5684 44.8856 52.7609 44.2451 52.7609C43.3237 52.7609 42.6832 52.2965 42.5147 51.5376H47.088C47.0992 51.3904 47.1217 51.1978 47.1217 51.0619ZM43.9867 49.2383C44.7732 49.2383 45.3463 49.7366 45.4699 50.5069H42.4922C42.6158 49.7253 43.1889 49.2383 43.9867 49.2383Z" fill="white"/>
<path d="M20.9477 26.6853V27.7732C20.9477 27.9663 20.7923 28.123 20.6007 28.123C20.4091 28.123 20.2537 27.9663 20.2537 27.7732V26.6853C19.7979 26.8334 19.4671 27.2651 19.4671 27.7732C19.4671 28.4033 19.9757 28.9159 20.6007 28.9159C21.2258 28.9159 21.7343 28.4033 21.7343 27.7732C21.7343 27.2651 21.4035 26.8334 20.9477 26.6853Z" fill="white"/>
<path d="M23.1918 28.9159H22.9835V27.7732C22.9835 27.5802 22.8281 27.4234 22.6365 27.4234H22.4283V25.4226C22.4283 25.3251 22.3878 25.232 22.317 25.1658L20.8365 23.7853C20.7034 23.6611 20.498 23.6611 20.3649 23.7853L18.8844 25.1658C18.8136 25.232 18.773 25.3251 18.773 25.4226V27.4234H18.5649C18.3733 27.4234 18.2178 27.5802 18.2178 27.7732V28.9159H18.0096C17.8181 28.9159 17.6627 29.0726 17.6627 29.2657V30.4084H23.5387V29.2657C23.5387 29.0726 23.3833 28.9159 23.1918 28.9159ZM20.6007 29.6155C19.5929 29.6155 18.773 28.789 18.773 27.7732C18.773 26.7574 19.5929 25.931 20.6007 25.931C21.6084 25.931 22.4283 26.7574 22.4283 27.7732C22.4283 28.789 21.6084 29.6155 20.6007 29.6155Z" fill="white"/>
<path d="M19.3927 31.108H17.6627V31.9009H18.6061L19.3927 31.108Z" fill="white"/>
<path d="M20.3745 31.108L19.5879 31.9009H20.6419L21.4285 31.108H20.3745Z" fill="white"/>
<path d="M21.6237 31.9009H23.5387V31.108H22.4103L21.6237 31.9009Z" fill="white"/>
<path d="M20.6008 34.093C20.2817 34.093 20.0223 34.3544 20.0223 34.676V35.5855H21.1791V34.676C21.1791 34.3544 20.9198 34.093 20.6008 34.093Z" fill="white"/>
<path d="M17.6627 35.2357C17.6627 35.4288 17.8181 35.5855 18.0096 35.5855H19.3283V34.676C19.3283 33.9687 19.8991 33.3933 20.6007 33.3933C21.3023 33.3933 21.8731 33.9687 21.8731 34.676V35.5855H23.1918C23.3833 35.5855 23.5387 35.4288 23.5387 35.2357V32.6005H17.6627V35.2357Z" fill="white"/>
<path d="M16.6216 30.968C16.4299 30.968 16.2746 31.1247 16.2746 31.3179V31.9009H15.3955V31.3179C15.3955 31.1247 15.2401 30.968 15.0484 30.968C14.8568 30.968 14.7014 31.1247 14.7014 31.3179V35.2357C14.7014 35.4288 14.8569 35.5855 15.0484 35.5855H15.488V33.7431C15.488 33.5501 15.6434 33.3933 15.835 33.3933C16.0266 33.3933 16.182 33.5501 16.182 33.7431V35.5855H16.9686C16.9686 34.958 16.9686 31.8386 16.9686 31.3179C16.9686 31.1247 16.8133 30.968 16.6216 30.968Z" fill="white"/>
<path d="M26.153 30.968C25.9613 30.968 25.8059 31.1247 25.8059 31.3179V31.9009H24.9268V31.3179C24.9268 31.1247 24.7715 30.968 24.5798 30.968C24.3881 30.968 24.2328 31.1247 24.2328 31.3179V35.5855H25.0194V33.7431C25.0194 33.5501 25.1748 33.3933 25.3664 33.3933C25.558 33.3933 25.7134 33.5501 25.7134 33.7431V35.5855H26.153C26.3446 35.5855 26.5 35.4288 26.5 35.2357C26.5 34.7945 26.5 31.9855 26.5 31.3179C26.5 31.1247 26.3446 30.968 26.153 30.968Z" fill="white"/>
</g>
<defs>
<clipPath id="clip0">
<rect width="53" height="69" fill="white"/>
</clipPath>
</defs>
</svg>
