<svg width="120" height="120" viewBox="0 0 120 120" fill="none" xmlns="http://www.w3.org/2000/svg">
<path d="M47.9297 107.72V119.874L44.9908 117.5C44.5367 117.133 33.7326 108.361 22.7765 95.7825C7.66296 78.4305 0 62.8546 0 49.4888V48.1641C0 21.7355 21.5012 0.234375 47.9297 0.234375C74.3582 0.234375 95.8594 21.7355 95.8594 48.1641V49.4888C95.8594 50.6113 95.7999 51.7511 95.6918 52.9047L86.3187 44.3536C84.3988 24.8639 67.9156 9.58649 47.9297 9.58649C26.6583 9.58649 9.35211 26.8927 9.35211 48.1641V49.4888C9.35211 72.0749 38.4531 99.4171 47.9297 107.72ZM76.6873 101.003H90.715V86.9751H76.6873V101.003ZM47.9297 28.2907C58.8876 28.2907 67.803 37.2061 67.803 48.1641C67.803 59.122 58.8876 68.0374 47.9297 68.0374C36.9717 68.0374 28.0563 59.122 28.0563 48.1641C28.0563 37.2061 36.9717 28.2907 47.9297 28.2907ZM47.9297 37.6428C42.128 37.6428 37.4084 42.3624 37.4084 48.1641C37.4084 53.9648 42.128 58.6853 47.9297 58.6853C53.7305 58.6853 58.4509 53.9648 58.4509 48.1641C58.4509 42.3624 53.7305 37.6428 47.9297 37.6428ZM113.698 94.6481L111.068 92.2495V107.263C111.068 114.254 105.38 119.941 98.389 119.941H68.7799C61.7889 119.941 56.1008 114.254 56.1008 107.263V92.2495L53.4714 94.6481L47.1689 87.7396L83.584 54.5178L120 87.7396L113.698 94.6481ZM101.716 83.7177L83.584 67.1768L65.4529 83.7177V107.262C65.4529 109.097 66.9452 110.589 68.7799 110.589H98.389C100.224 110.589 101.716 109.097 101.716 107.262V83.7177Z" fill="white"/>
</svg>
