<svg width="120" height="120" viewBox="0 0 120 120" fill="none" xmlns="http://www.w3.org/2000/svg">
<path d="M93.7505 35.6249H60.0001C58.7057 35.6249 57.6564 36.6742 57.6564 37.9687C57.6564 39.2631 58.7057 40.3124 60.0001 40.3124H93.7505C95.045 40.3124 96.0943 39.2631 96.0943 37.9687C96.0943 36.6742 95.045 35.6249 93.7505 35.6249Z" fill="white"/>
<path d="M85.5492 47.5619C85.1133 47.126 84.5086 46.8752 83.8922 46.8752C83.2758 46.8752 82.6711 47.126 82.2352 47.5619C81.7992 47.9978 81.5485 48.6025 81.5485 49.2189C81.5485 49.8353 81.7992 50.44 82.2352 50.876C82.6711 51.3119 83.2758 51.5627 83.8922 51.5627C84.5086 51.5627 85.1133 51.3119 85.5492 50.876C85.9852 50.44 86.236 49.8353 86.236 49.2189C86.236 48.6025 85.9852 47.9978 85.5492 47.5619Z" fill="white"/>
<path d="M61.6548 10.7651C61.2189 10.3291 60.6142 10.0784 59.9978 10.0784C59.3814 10.0784 58.7767 10.3291 58.3408 10.7651C57.9048 11.201 57.6541 11.8057 57.6541 12.4221C57.6541 13.0385 57.9048 13.6432 58.3408 14.0791C58.7767 14.5151 59.3814 14.7659 59.9978 14.7659C60.6142 14.7659 61.2189 14.5151 61.6548 14.0791C62.0908 13.6432 62.3415 13.0385 62.3415 12.4221C62.3415 11.8057 62.0908 11.201 61.6548 10.7651Z" fill="white"/>
<path d="M74.0338 46.8749H60.0001C58.7057 46.8749 57.6564 47.9242 57.6564 49.2187C57.6564 50.5131 58.7057 51.5624 60.0001 51.5624H74.0338C75.3282 51.5624 76.3775 50.5131 76.3775 49.2187C76.3775 47.9242 75.3282 46.8749 74.0338 46.8749Z" fill="white"/>
<path d="M93.7505 60.9374H60.0001C58.7057 60.9374 57.6564 61.9867 57.6564 63.2811C57.6564 64.5756 58.7057 65.6249 60.0001 65.6249H93.7505C95.045 65.6249 96.0943 64.5756 96.0943 63.2811C96.0943 61.9867 95.045 60.9374 93.7505 60.9374Z" fill="white"/>
<path d="M85.5492 72.8743C85.1133 72.4384 84.5086 72.1876 83.8922 72.1876C83.2758 72.1876 82.6711 72.4384 82.2352 72.8743C81.7992 73.3103 81.5485 73.915 81.5485 74.5314C81.5485 75.1478 81.7992 75.7525 82.2352 76.1884C82.6711 76.6243 83.2758 76.8751 83.8922 76.8751C84.5086 76.8751 85.1133 76.6243 85.5492 76.1884C85.9852 75.7525 86.236 75.1478 86.236 74.5314C86.236 73.915 85.9852 73.3103 85.5492 72.8743Z" fill="white"/>
<path d="M74.0338 72.1874H60.0001C58.7057 72.1874 57.6564 73.2367 57.6564 74.5311C57.6564 75.8256 58.7057 76.8749 60.0001 76.8749H74.0338C75.3282 76.8749 76.3775 75.8256 76.3775 74.5311C76.3775 73.2367 75.3282 72.1874 74.0338 72.1874Z" fill="white"/>
<path d="M93.7505 86.2498H60.0001C58.7057 86.2498 57.6564 87.2991 57.6564 88.5936C57.6564 89.888 58.7057 90.9373 60.0001 90.9373H93.7505C95.045 90.9373 96.0943 89.888 96.0943 88.5936C96.0943 87.2991 95.045 86.2498 93.7505 86.2498Z" fill="white"/>
<path d="M85.5492 98.1868C85.1133 97.7509 84.5086 97.5001 83.8922 97.5001C83.2758 97.5001 82.6711 97.7509 82.2352 98.1868C81.7992 98.6228 81.5485 99.2275 81.5485 99.8439C81.5485 100.46 81.7992 101.065 82.2352 101.501C82.6711 101.937 83.2758 102.188 83.8922 102.188C84.5086 102.188 85.1133 101.937 85.5492 101.501C85.9852 101.065 86.236 100.46 86.236 99.8439C86.236 99.2275 85.9852 98.6228 85.5492 98.1868Z" fill="white"/>
<path d="M74.0338 97.4998H60.0001C58.7057 97.4998 57.6564 98.5491 57.6564 99.8435C57.6564 101.138 58.7057 102.187 60.0001 102.187H74.0338C75.3282 102.187 76.3775 101.138 76.3775 99.8435C76.3775 98.5491 75.3282 97.4998 74.0338 97.4998Z" fill="white"/>
<path d="M98.2599 9.14084H80.3586C77.7709 6.67499 74.2729 5.15624 70.4247 5.15624H68.3715C66.8019 2.0489 63.5772 0 59.9999 0C56.4227 0 53.1981 2.0489 51.6283 5.15624H49.5702C45.7221 5.15624 42.2242 6.67499 39.6365 9.14084H21.7404C15.4392 9.14084 10.3127 14.2673 10.3127 20.5685V108.572C10.3127 114.874 15.4392 120 21.7404 120H98.2597C104.561 120 109.687 114.874 109.687 108.572V20.5685C109.688 14.2673 104.561 9.14084 98.2599 9.14084ZM49.5705 9.84373H53.2234C54.2777 9.84373 55.202 9.1399 55.4826 8.12389C56.0416 6.10053 57.8992 4.68749 60.0002 4.68749C62.1011 4.68749 63.9587 6.10053 64.5175 8.12389C64.798 9.1399 65.7226 9.84373 66.7766 9.84373H70.4247C75.5118 9.84373 79.6991 13.7695 80.117 18.7502H39.8782C40.296 13.7695 44.4836 9.84373 49.5705 9.84373ZM105 108.573C105 112.289 101.976 115.313 98.2599 115.313H21.7404C18.0239 115.313 15.0002 112.289 15.0002 108.573V20.5685C15.0002 16.852 18.0239 13.8283 21.7404 13.8283H36.3529C35.5851 15.589 35.1565 17.53 35.1565 19.5705V21.0939C35.1565 22.3884 36.2057 23.4377 37.5002 23.4377H82.4952C83.7896 23.4377 84.8389 22.3884 84.8389 21.0939V19.5705C84.8389 17.5303 84.4103 15.589 83.6424 13.8283H98.2599C101.976 13.8283 105 16.852 105 20.5685V108.573Z" fill="white"/>
<path d="M45.096 35.0615C44.1807 34.1463 42.6967 34.1463 41.7815 35.0613L31.7591 45.0838L28.6717 41.9962C27.7565 41.0812 26.2724 41.0812 25.357 41.9962C24.4417 42.9114 24.4417 44.3955 25.357 45.3109L30.1019 50.0559C30.5596 50.5136 31.1594 50.7423 31.7591 50.7423C32.3589 50.7423 32.9589 50.5136 33.4164 50.0559L45.096 38.3763C46.0112 37.461 46.0112 35.977 45.096 35.0615Z" fill="white"/>
<path d="M39.3752 86.2498H28.1252C26.8308 86.2498 25.7815 87.2991 25.7815 88.5936V99.8435C25.7815 101.138 26.8308 102.187 28.1252 102.187H39.3752C40.6697 102.187 41.719 101.138 41.719 99.8435V88.5936C41.719 87.2991 40.6697 86.2498 39.3752 86.2498ZM37.0315 97.4998H30.469V90.9373H37.0315V97.4998Z" fill="white"/>
<path d="M39.3752 60.9374H28.1252C26.8308 60.9374 25.7815 61.9867 25.7815 63.2811V74.5311C25.7815 75.8256 26.8308 76.8748 28.1252 76.8748H39.3752C40.6697 76.8748 41.719 75.8256 41.719 74.5311V63.2811C41.719 61.9867 40.6697 60.9374 39.3752 60.9374ZM37.0315 72.1874H30.469V65.6249H37.0315V72.1874Z" fill="white"/>
</svg>
