<svg width="120" height="120" viewBox="0 0 120 120" fill="none" xmlns="http://www.w3.org/2000/svg">
<path d="M115.508 5.84109H91.5999V1.75781C91.5999 0.787031 90.8131 0 89.8421 0H29.3215C28.3505 0 27.5637 0.787031 27.5637 1.75781V5.84109H4.49278C3.53418 5.84109 2.7345 6.64266 2.7345 7.59914L2.73497 53.7246C2.73497 54.6954 3.52176 55.4824 4.49278 55.4824H27.564V68.3163C27.564 69.2871 28.3507 70.0741 29.3218 70.0741H34.6864C34.3421 70.7381 34.1105 71.4729 34.0205 72.2555L31.7093 92.2669C31.6444 92.8327 31.6137 93.4069 31.6182 93.9593C31.6182 98.4713 33.9129 102.188 37.2322 105.045C39.1829 106.725 41.1336 108.404 43.0843 110.083V118.242C43.0843 119.213 43.8711 120 44.8421 120H50.2505C51.2215 120 52.0083 119.213 52.0083 118.242C52.0083 117.271 51.2215 116.484 50.2505 116.484H46.5999V109.277C46.5999 108.765 46.3768 108.279 45.9891 107.945C44.0649 106.288 42.1407 104.632 40.2164 102.975C37.3962 100.547 35.2065 97.8902 35.1338 93.9316C35.1307 93.5126 35.154 93.0879 35.202 92.6698L37.5132 72.6581C37.6751 71.2488 38.8693 70.1859 40.2905 70.1859C41.2226 70.1859 42.0014 70.6976 42.3854 71.1356C43.0163 71.8561 43.0845 72.6649 43.0845 72.9792V87.7983C43.0845 88.7691 43.8713 89.5561 44.8423 89.5561C45.8133 89.5561 46.6001 88.7691 46.6001 87.7983V40.1674C46.6001 38.6269 47.8536 37.3737 49.3939 37.3737C50.9297 37.3737 52.1794 38.6196 52.1871 40.1536C52.1871 40.158 52.1864 40.1623 52.1864 40.1667C52.1864 40.1759 52.1876 40.1848 52.1879 40.1939V62.4162C52.1879 65.1012 55.7215 65.0944 55.7175 62.438C55.7171 62.0562 55.7154 60.9328 55.7241 60.6412C56.0377 57.0654 62.0321 57.1505 62.0321 60.8245V63.4875C62.0321 65.7546 65.5477 65.7546 65.5477 63.4875C65.5479 61.9448 66.8028 60.6898 68.3457 60.6898C70.0929 60.6898 71.8627 61.447 71.8627 63.4877V65.2195C71.8627 67.4637 75.3382 67.5014 75.3781 65.2505C75.3844 64.8839 75.4036 64.8021 75.4676 64.5319C76.1726 61.7808 80.2475 61.7677 80.9621 64.5183L83.131 72.8723C84.699 78.9166 84.6359 85.2888 82.9479 91.3001L78.0336 108.802C77.99 108.957 77.9682 109.117 77.9682 109.277V116.484H58.6662C57.6952 116.484 56.9084 117.271 56.9084 118.242C56.9084 119.213 57.6952 120 58.6662 120H79.726C80.697 120 81.4838 119.213 81.4838 118.242V109.519L86.3325 92.2502C88.1883 85.6411 88.2582 78.6349 86.5339 71.989L86.0368 70.0739H89.8428C90.8138 70.0739 91.6006 69.2869 91.6006 68.3161V16.4859H113.751V51.9668H98.1068C97.1358 51.9668 96.349 52.7538 96.349 53.7246C96.349 54.6954 97.1358 55.4824 98.1068 55.4824H115.508C116.479 55.4824 117.266 54.6954 117.266 53.7246V7.59914V7.59891C117.266 6.62813 116.479 5.84109 115.508 5.84109ZM6.25059 9.35695H27.564V12.9703H6.25059V9.35695ZM31.0805 3.51633H88.0836V12.9703H31.0805V3.51633ZM6.25059 51.9668V16.4859H27.564V51.9668H6.25059ZM85.1234 66.5585L84.3643 63.6342C83.2543 59.3632 77.9715 57.5128 74.4225 60.1444C72.4993 57.075 67.9887 56.2313 64.9625 58.1587C63.3943 54.7863 58.9648 53.5369 55.703 55.1773V41.9243H71.6935C72.6319 41.9243 73.3953 42.6888 73.3953 43.6284V47.0051C73.3953 47.9433 72.6319 48.7066 71.6935 48.7066H62.0722C61.1011 48.7066 60.3143 49.4937 60.3143 50.4645C60.3143 51.4352 61.1011 52.2223 62.0722 52.2223H71.6935C74.5702 52.2223 76.9109 49.8818 76.9109 47.0051V43.6284C76.9109 40.7503 74.5704 38.4087 71.6935 38.4087H55.4518C54.6882 35.783 52.2622 33.8578 49.3934 33.8578C45.9143 33.8578 43.084 36.6884 43.084 40.1672V66.5583H31.0793V16.4859H88.0843V66.5585H85.1234ZM91.5999 12.9703V9.35695H113.75V12.9703H91.5999Z" fill="white"/>
<path d="M69.7737 6.57092H49.3904C48.4194 6.57092 47.6326 7.35795 47.6326 8.32874C47.6326 9.29952 48.4194 10.0865 49.3904 10.0865H69.7737C70.7448 10.0865 71.5315 9.29952 71.5315 8.32874C71.5315 7.35795 70.7448 6.57092 69.7737 6.57092Z" fill="white"/>
<path d="M52.3414 19.8595H38.4617C37.4907 19.8595 36.7039 20.6465 36.7039 21.6173V29.6456C36.7039 30.6164 37.4907 31.4034 38.4617 31.4034H52.3414C53.3124 31.4034 54.0992 30.6164 54.0992 29.6456V21.6173C54.0992 20.6465 53.3124 19.8595 52.3414 19.8595ZM50.5835 27.8878H40.2195V23.3751H50.5835V27.8878Z" fill="white"/>
<path d="M96.8806 29.2329H107.323C108.294 29.2329 109.081 28.4459 109.081 27.4751C109.081 26.5043 108.294 25.7173 107.323 25.7173H96.8806C95.9096 25.7173 95.1228 26.5043 95.1228 27.4751C95.1228 28.4459 95.9098 29.2329 96.8806 29.2329Z" fill="white"/>
<path d="M107.323 36.7948C108.294 36.7948 109.081 36.0078 109.081 35.037C109.081 34.0662 108.294 33.2792 107.323 33.2792H96.8806C95.9096 33.2792 95.1228 34.0662 95.1228 35.037C95.1228 36.0078 95.9096 36.7948 96.8806 36.7948H107.323Z" fill="white"/>
<path d="M11.5873 29.2329H22.0292C23.0002 29.2329 23.787 28.4459 23.787 27.4751C23.787 26.5043 23.0002 25.7173 22.0292 25.7173H11.5873C10.6163 25.7173 9.82947 26.5043 9.82947 27.4751C9.82947 28.4459 10.6165 29.2329 11.5873 29.2329Z" fill="white"/>
<path d="M22.0292 33.2792H11.5873C10.6163 33.2792 9.82947 34.0662 9.82947 35.037C9.82947 36.0078 10.6163 36.7948 11.5873 36.7948H22.0292C23.0002 36.7948 23.787 36.0078 23.787 35.037C23.787 34.0662 23.0002 33.2792 22.0292 33.2792Z" fill="white"/>
<path d="M79.7248 23.8737H61.077C60.106 23.8737 59.3192 24.6607 59.3192 25.6315C59.3192 26.6023 60.106 27.3893 61.077 27.3893H79.7248C80.6959 27.3893 81.4826 26.6023 81.4826 25.6315C81.4826 24.6607 80.6959 23.8737 79.7248 23.8737Z" fill="white"/>
</svg>
